<svg version="1.2" xmlns="http://www.w3.org/2000/svg" viewBox="0 0 126 98" width="257" height="200">
	<title>cars-svg</title>
	<style>
		.s0 { fill: #ffffff }
	</style>
	<path id="Layer" fill-rule="evenodd" class="s0" d="m117 50.2v12.2c0 4.7-3.8 8.4-8.4 8.4h-8.1c-1.1 5.4-5.8 9.5-11.5 9.5-5.7 0-10.5-4.1-11.5-9.5h-33.1c-1.1 5.4-5.8 9.5-11.5 9.5-5.7 0-10.4-4.1-11.5-9.5h-5.5c-3.8 0-6.9-3-6.9-6.8v-18.4c0-3.8 3.1-6.9 6.9-6.9h4.4l12.8-12.8c2.2-2.2 6.2-3.9 9.4-3.9q0 0 0 0c0.1 0 28.3 0 28.3 0 3.1 0 7.2 1.7 9.4 3.9l13 13 17.3 3.2q0 0 0.1 0c3.8 0.9 6.4 4.2 6.4 8.1zm-46.2-23.6h-5.1v12.1h20.8l-9.5-9.5c-1.4-1.4-4.3-2.6-6.2-2.6zm-9.7 12.1v-12.1h-16.9l-4.6 12.1zm-21.1 29.9c0-4-3.2-7.2-7.1-7.2-4 0-7.2 3.2-7.2 7.2 0 3.9 3.2 7.1 7.2 7.1 3.9 0 7.1-3.2 7.1-7.1zm56.1 0c0-4-3.2-7.2-7.2-7.2-3.9 0-7.1 3.2-7.1 7.2 0 3.9 3.2 7.1 7.1 7.1 4 0 7.2-3.2 7.2-7.1zm16.3-6.2v-5.7h-5.9c-1.2 0-2.3-1-2.3-2.3 0-1.2 1.1-2.3 2.3-2.3h5.9v-1.9c0-1.7-1.2-3.2-2.8-3.6l-17.8-3.3h-55.6c-0.8 0-1.5-0.4-1.9-1-0.4-0.6-0.5-1.4-0.3-2.1l4.9-12.7c-1 0.5-2 1.1-2.6 1.7l-13.4 13.4c-0.4 0.5-1 0.7-1.6 0.7h-5.4c-1.3 0-2.3 1-2.3 2.3v3.9h5c1.3 0 2.3 1.1 2.3 2.3 0 1.3-1 2.3-2.3 2.3h-5v9.9c0 1.2 1 2.2 2.2 2.2h5.6c1-5.3 5.8-9.4 11.5-9.4 5.7 0 10.4 4.1 11.5 9.4h33c1.1-5.3 5.8-9.4 11.5-9.4 5.7 0 10.5 4.1 11.5 9.4h8.1c2.1 0 3.9-1.7 3.9-3.8z"/>
	<path id="Layer" class="s0" d="m70.7 45.3h-3.1c-1.3 0-2.3 1-2.3 2.3 0 1.2 1 2.3 2.3 2.3h3.1c1.2 0 2.3-1.1 2.3-2.3 0-1.3-1.1-2.3-2.3-2.3z"/>
</svg>